<?xml version="1.0" encoding="utf-8"?>
<!-- Generator: Adobe Illustrator 19.1.0, SVG Export Plug-In . SVG Version: 6.00 Build 0)  -->
<svg version="1.1" id="Layer_1" xmlns="http://www.w3.org/2000/svg" xmlns:xlink="http://www.w3.org/1999/xlink" x="0px" y="0px"
	 viewBox="0 0 166 50" style="enable-background:new 0 0 166 50;" xml:space="preserve">
<style type="text/css">
	.st0{fill:#FFFFFF;}
	.st1{fill:#F89920;}
</style>
<g>
	<path class="st0" d="M17.1,48.2V33c0-4.9-3.2-6.6-7.8-6.6c-4.4,0-8.1,1.9-8.1,6.8h4.9c0-2.1,1.1-3.3,3.3-3.3c2.5,0,3,1.8,3,3.9v2.1
		C7.5,36,0.4,36.7,0.4,43.1c0,3.6,2.9,5.6,6.3,5.6c2.3,0,4.5-0.8,5.6-3h0.1v2.5H17.1z M12.4,38.8c0,2.7-1.1,6.4-4.4,6.4
		c-1.7,0-2.7-0.9-2.7-2.6C5.3,39.4,10,38.8,12.4,38.8"/>
	<path class="st0" d="M31.9,34.2c0-2.2-0.6-4.3-3.2-4.3c-3.1,0-4.1,3.3-4.1,5.8c0,5.4,3.1,9.5,8.8,9.5c1.2,0,2.4-0.1,3.6-0.5v3.1
		c-2,0.6-4.1,1-6.2,1c-7.6,0-11.5-4.7-11.5-12.1c0-6.2,3.4-10.2,9.8-10.2c5.2,0,8.1,2.6,8.1,7.8H31.9z"/>
	<path class="st0" d="M51.1,34.2c0-2.2-0.6-4.3-3.2-4.3c-3.1,0-4.1,3.3-4.1,5.8c0,5.4,3.1,9.5,8.8,9.5c1.2,0,2.4-0.1,3.6-0.5v3.1
		c-2,0.6-4.1,1-6.2,1c-7.6,0-11.5-4.7-11.5-12.1c0-6.2,3.4-10.2,9.8-10.2c5.2,0,8.1,2.6,8.1,7.8H51.1z"/>
	<path class="st0" d="M75.3,36.2V35c0-5.2-2.7-8.7-8.1-8.7c-6.4,0-9.2,4-9.2,10.1c0,7.1,3.2,12.3,10.8,12.3c2,0,4-0.2,6-0.9v-3.5
		c-1.3,0.4-2.7,0.8-4.1,0.8c-4.9,0-8-4.4-8-9H75.3z M70.6,33.2h-7.8c0.2-2.2,1.9-3.7,4-3.7C69.1,29.5,70.6,30.9,70.6,33.2"/>
	<path class="st0" d="M90.1,48.2V36c0-1,0.1-3.8-0.8-4.6C89,31.1,88.4,31,87.9,31c-3.6,0-5,5.1-5,8v9.2h-5V26.8h5v4h0.1
		c1.1-2.7,3.3-4.5,6.3-4.5c4.1,0,5.8,3.4,5.8,7.1v14.8H90.1z"/>
	<path class="st0" d="M105.4,30.3v10.1c0,2.5,0.3,4.8,3.4,4.8c0.8,0,1.5-0.2,2.3-0.4v3.5c-1.3,0.2-2.7,0.4-4.1,0.4
		c-4.4,0-6.6-1.4-6.6-5.9V30.3h-4.2v-3.5h4.2v-5.1l5-2v7.1h6.3v3.5H105.4z"/>
	<path class="st0" d="M126.2,48.2v-4h-0.1c-1.1,2.7-3.3,4.5-6.3,4.5c-4.1,0-5.8-3.4-5.8-7.1V26.8h5v12.2c0,1-0.1,3.8,0.8,4.6
		c0.4,0.4,0.9,0.4,1.4,0.4c3.6,0,5-5.1,5-7.9v-9.3h5v21.4H126.2z"/>
	<path class="st0" d="M139.3,38.8v9.4h-5V26.8h5v4h0.1c1.7-3,3.3-4.4,6.9-4.4v5.2C141.2,31.6,139.3,33.8,139.3,38.8"/>
	<path class="st0" d="M164.6,36.2V35c0-5.2-2.7-8.7-8.1-8.7c-6.4,0-9.2,4-9.2,10.1c0,7.1,3.2,12.3,10.8,12.3c2,0,4-0.2,6-0.9v-3.5
		c-1.3,0.4-2.7,0.8-4.1,0.8c-4.9,0-8-4.4-8-9H164.6z M159.9,33.2h-7.8c0.2-2.2,1.9-3.7,4-3.7C158.4,29.5,159.9,30.9,159.9,33.2"/>
	<path class="st1" d="M96.3,1.8v0.5v3c0,0,10,3.9,11.4,4.4c-1.4,0.6-11.4,4.4-11.4,4.4v3.5l15.5-6.3V8.1L96.3,1.8z"/>
</g>
</svg>
