<?xml version="1.0" encoding="utf-8"?>
<!-- Generator: Adobe Illustrator 19.1.0, SVG Export Plug-In . SVG Version: 6.00 Build 0)  -->
<svg version="1.1" id="Layer_1" xmlns="http://www.w3.org/2000/svg" xmlns:xlink="http://www.w3.org/1999/xlink" x="0px" y="0px"
	 viewBox="0 0 370 300" style="enable-background:new 0 0 370 300;" xml:space="preserve">
<style type="text/css">
	.st0{fill:#FFFFFF;}
</style>
<g>
	
		<rect x="309.2" y="27.2" transform="matrix(0.2971 0.9549 -0.9549 0.2971 252.1366 -282.2222)" class="st0" width="17.2" height="5.9"/>
	<path class="st0" d="M341.6,0.3l-3.2,1l-6,1.9l-15.7,4.9c-1.3,0.4-2.3,1.8-1.9,3.2L326,47.4c0.4,1.3,2.1,2,3.4,1.6l15.7-4.9l6-1.9
		l3.2-1L341.6,0.3z"/>
	<path class="st0" d="M340.8,14.6L340.8,14.6c-0.6-1.8,0.5-3.8,2.3-4.3l16-5c1.8-0.6,3.8,0.5,4.3,2.3v0c0.6,1.8-0.5,3.8-2.3,4.3
		l-16,5C343.4,17.4,341.4,16.4,340.8,14.6z"/>
	<path class="st0" d="M345.5,29.7L345.5,29.7c-0.6-1.8,0.5-3.8,2.3-4.3l16-5c1.8-0.6,3.8,0.5,4.3,2.3v0c0.6,1.8-0.5,3.8-2.3,4.3
		l-16,5C348.1,32.5,346.1,31.5,345.5,29.7z"/>
</g>
<path class="st0" d="M319.8,29.9c-0.7-3.2-3.9-5.3-7.1-4.5c-11.7,2.6-42.8,12.9-76.8,33.2c-45.6,27.3-80.1,62.3-102.6,104
	C107.2,211,67,244.3,37.9,263.7C22.9,273.6,9.3,281-1,286.1v13.3c11-5.1,27-13.5,45.2-25.5c30.4-20.2,72.3-54.8,99.6-105.7
	c21.4-39.8,54.5-73.2,98.2-99.4C275.8,48.5,306.3,39,315.2,37C318.5,36.3,320.5,33.1,319.8,29.9z"/>
</svg>
